# Blender 3.3.0
# www.blender.org
o Cube
v 0.700000 0.700000 -1.000000
v 0.700000 1.000000 -0.700000
v 1.000000 0.700000 -0.700000
v 0.700000 0.849803 -0.959921
v 0.849803 0.700000 -0.959921
v 0.843464 0.843464 -0.920990
v 0.849803 0.959921 -0.700000
v 0.700000 0.959921 -0.849803
v 0.843464 0.920990 -0.843464
v 0.959921 0.700000 -0.849803
v 0.959921 0.849803 -0.700000
v 0.920990 0.843464 -0.843464
v 0.700000 -1.000000 -0.700000
v 0.700000 -0.700000 -1.000000
v 1.000000 -0.700000 -0.700000
v 0.700000 -0.959921 -0.849803
v 0.849803 -0.959921 -0.700000
v 0.843464 -0.920990 -0.843464
v 0.849803 -0.700000 -0.959921
v 0.700000 -0.849803 -0.959921
v 0.843464 -0.843464 -0.920990
v 0.959921 -0.849803 -0.700000
v 0.959921 -0.700000 -0.849803
v 0.920990 -0.843464 -0.843464
v 1.000000 0.700000 0.700000
v 0.700000 1.000000 0.700000
v 0.700000 0.700000 1.000000
v 0.959921 0.849803 0.700000
v 0.959921 0.700000 0.849803
v 0.920990 0.843464 0.843464
v 0.700000 0.959921 0.849803
v 0.849803 0.959921 0.700000
v 0.843464 0.920990 0.843464
v 0.849803 0.700000 0.959921
v 0.700000 0.849803 0.959921
v 0.843464 0.843464 0.920990
v 1.000000 -0.700000 0.700000
v 0.700000 -0.700000 1.000000
v 0.700000 -1.000000 0.700000
v 0.959921 -0.700000 0.849803
v 0.959921 -0.849803 0.700000
v 0.920990 -0.843464 0.843464
v 0.700000 -0.849803 0.959921
v 0.849803 -0.700000 0.959921
v 0.843464 -0.843464 0.920990
v 0.849803 -0.959921 0.700000
v 0.700000 -0.959921 0.849803
v 0.843464 -0.920990 0.843464
v -0.700000 0.700000 -1.000000
v -1.000000 0.700000 -0.700000
v -0.700000 1.000000 -0.700000
v -0.849803 0.700000 -0.959921
v -0.700000 0.849803 -0.959921
v -0.843464 0.843464 -0.920990
v -0.959921 0.849803 -0.700000
v -0.959921 0.700000 -0.849803
v -0.920990 0.843464 -0.843464
v -0.700000 0.959921 -0.849803
v -0.849803 0.959921 -0.700000
v -0.843464 0.920990 -0.843464
v -1.000000 -0.700000 -0.700000
v -0.700000 -0.700000 -1.000000
v -0.700000 -1.000000 -0.700000
v -0.959921 -0.700000 -0.849803
v -0.959921 -0.849803 -0.700000
v -0.920990 -0.843464 -0.843464
v -0.700000 -0.849803 -0.959921
v -0.849803 -0.700000 -0.959921
v -0.843464 -0.843464 -0.920990
v -0.849803 -0.959921 -0.700000
v -0.700000 -0.959921 -0.849803
v -0.843464 -0.920990 -0.843464
v -1.000000 0.700000 0.700000
v -0.700000 0.700000 1.000000
v -0.700000 1.000000 0.700000
v -0.959921 0.700000 0.849803
v -0.959921 0.849803 0.700000
v -0.920990 0.843464 0.843464
v -0.700000 0.849803 0.959921
v -0.849803 0.700000 0.959921
v -0.843464 0.843464 0.920990
v -0.849803 0.959921 0.700000
v -0.700000 0.959921 0.849803
v -0.843464 0.920990 0.843464
v -0.700000 -1.000000 0.700000
v -0.700000 -0.700000 1.000000
v -1.000000 -0.700000 0.700000
v -0.700000 -0.959921 0.849803
v -0.849803 -0.959921 0.700000
v -0.843464 -0.920990 0.843464
v -0.849803 -0.700000 0.959921
v -0.700000 -0.849803 0.959921
v -0.843464 -0.843464 0.920990
v -0.959921 -0.849803 0.700000
v -0.959921 -0.700000 0.849803
v -0.920990 -0.843464 0.843464
vn 0.1280 -0.9835 -0.1280
vn -0.1280 -0.9835 0.1280
vn -0.1280 -0.9835 -0.1280
vn -0.9835 0.1280 0.1280
vn -0.9835 -0.1280 -0.1280
vn -0.9835 -0.1280 0.1280
vn 0.1280 0.1280 0.9835
vn -0.1280 -0.1280 0.9835
vn 0.1280 -0.1280 0.9835
vn -0.1280 0.9835 -0.1280
vn 0.1280 0.9835 0.1280
vn 0.1280 0.9835 -0.1280
vn 0.9835 0.1280 -0.1280
vn 0.9835 -0.1280 0.1280
vn 0.9835 -0.1280 -0.1280
vn 0.1216 0.4916 -0.8623
vn 0.4916 0.1216 -0.8623
vn 0.1280 0.1280 -0.9835
vn 0.1216 0.8623 -0.4916
vn 0.4488 0.4488 -0.7727
vn 0.4916 0.8623 -0.1216
vn 0.7727 0.4488 -0.4488
vn 0.4488 0.7727 -0.4488
vn 0.8623 0.1216 -0.4916
vn 0.8623 0.4916 -0.1216
vn 0.1216 -0.8623 -0.4916
vn 0.4916 -0.8623 -0.1216
vn 0.4488 -0.4488 -0.7727
vn 0.4488 -0.7727 -0.4488
vn 0.4916 -0.1216 -0.8623
vn 0.1216 -0.4916 -0.8623
vn 0.1280 -0.1280 -0.9835
vn 0.8623 -0.1216 -0.4916
vn 0.8623 -0.4916 -0.1216
vn 0.7727 -0.4488 -0.4488
vn 0.8623 0.4916 0.1216
vn 0.8623 0.1216 0.4916
vn 0.9835 0.1280 0.1280
vn 0.4916 0.8623 0.1216
vn 0.7727 0.4488 0.4488
vn 0.1216 0.8623 0.4916
vn 0.4488 0.4488 0.7727
vn 0.4488 0.7727 0.4488
vn 0.4916 0.1216 0.8623
vn 0.1216 0.4916 0.8623
vn 0.8623 -0.1216 0.4916
vn 0.8623 -0.4916 0.1216
vn 0.4916 -0.1216 0.8623
vn 0.7727 -0.4488 0.4488
vn 0.1216 -0.4916 0.8623
vn 0.1216 -0.8623 0.4916
vn 0.4488 -0.4488 0.7727
vn 0.4916 -0.8623 0.1216
vn 0.1280 -0.9835 0.1280
vn 0.4488 -0.7727 0.4488
vn -0.4916 0.1216 -0.8623
vn -0.1216 0.4916 -0.8623
vn -0.1280 0.1280 -0.9835
vn -0.8623 0.1216 -0.4916
vn -0.4488 0.4488 -0.7727
vn -0.8623 0.4916 -0.1216
vn -0.9835 0.1280 -0.1280
vn -0.4916 0.8623 -0.1216
vn -0.7727 0.4488 -0.4488
vn -0.1216 0.8623 -0.4916
vn -0.4488 0.7727 -0.4488
vn -0.8623 -0.1216 -0.4916
vn -0.8623 -0.4916 -0.1216
vn -0.4916 -0.1216 -0.8623
vn -0.7727 -0.4488 -0.4488
vn -0.1216 -0.4916 -0.8623
vn -0.1280 -0.1280 -0.9835
vn -0.1216 -0.8623 -0.4916
vn -0.4488 -0.4488 -0.7727
vn -0.4916 -0.8623 -0.1216
vn -0.4488 -0.7727 -0.4488
vn -0.8623 0.1216 0.4916
vn -0.8623 0.4916 0.1216
vn -0.4916 0.1216 0.8623
vn -0.7727 0.4488 0.4488
vn -0.1216 0.4916 0.8623
vn -0.1280 0.1280 0.9835
vn -0.1216 0.8623 0.4916
vn -0.4488 0.4488 0.7727
vn -0.4916 0.8623 0.1216
vn -0.1280 0.9835 0.1280
vn -0.4488 0.7727 0.4488
vn -0.1216 -0.8623 0.4916
vn -0.4916 -0.8623 0.1216
vn -0.4488 -0.4488 0.7727
vn -0.4488 -0.7727 0.4488
vn -0.4916 -0.1216 0.8623
vn -0.1216 -0.4916 0.8623
vn -0.8623 -0.1216 0.4916
vn -0.8623 -0.4916 0.1216
vn -0.7727 -0.4488 0.4488
vt 0.587500 0.462500
vt 0.662500 0.537500
vt 0.587500 0.537500
vt 0.606225 0.462500
vt 0.587500 0.481225
vt 0.605433 0.480433
vt 0.643775 0.537500
vt 0.662500 0.500000
vt 0.625000 0.462500
vt 0.625000 0.480433
vt 0.644567 0.500000
vt 0.587500 0.518775
vt 0.606225 0.537500
vt 0.605433 0.490124
vt 0.605433 0.519567
vt 0.337500 0.537500
vt 0.412500 0.462500
vt 0.412500 0.537500
vt 0.337500 0.518775
vt 0.356225 0.537500
vt 0.355433 0.519567
vt 0.412500 0.481225
vt 0.375000 0.462500
vt 0.337500 0.500000
vt 0.355433 0.500000
vt 0.375000 0.480433
vt 0.393775 0.537500
vt 0.412500 0.518775
vt 0.365124 0.519567
vt 0.394567 0.519567
vt 0.587500 0.712500
vt 0.662500 0.712500
vt 0.587500 0.787500
vt 0.606225 0.712500
vt 0.587500 0.731225
vt 0.605433 0.759876
vt 0.605433 0.730433
vt 0.625000 0.787500
vt 0.662500 0.750000
vt 0.643775 0.712500
vt 0.625000 0.769567
vt 0.644567 0.750000
vt 0.587500 0.768775
vt 0.606225 0.787500
vt 0.605433 0.769567
vt 0.412500 0.712500
vt 0.412500 0.787500
vt 0.337500 0.712500
vt 0.412500 0.731225
vt 0.393775 0.712500
vt 0.365124 0.730433
vt 0.394567 0.730433
vt 0.337500 0.750000
vt 0.375000 0.787500
vt 0.412500 0.768775
vt 0.375000 0.769567
vt 0.355433 0.750000
vt 0.356225 0.712500
vt 0.337500 0.731225
vt 0.355433 0.730433
vt 0.587500 0.287500
vt 0.587500 0.212500
vt 0.837500 0.537500
vt 0.587500 0.268775
vt 0.606225 0.287500
vt 0.605433 0.240124
vt 0.605433 0.269567
vt 0.606225 0.212500
vt 0.587500 0.231225
vt 0.605433 0.230433
vt 0.625000 0.287500
vt 0.837500 0.500000
vt 0.875000 0.537500
vt 0.625000 0.212500
vt 0.625000 0.250000
vt 0.625000 0.230433
vt 0.875000 0.519567
vt 0.412500 0.212500
vt 0.412500 0.287500
vt 0.162500 0.537500
vt 0.412500 0.231225
vt 0.375000 0.212500
vt 0.125000 0.537500
vt 0.375000 0.230433
vt 0.125000 0.519567
vt 0.162500 0.500000
vt 0.375000 0.287500
vt 0.412500 0.268775
vt 0.375000 0.269567
vt 0.144567 0.500000
vt 0.143775 0.537500
vt 0.162500 0.518775
vt 0.144567 0.519567
vt 0.587500 0.037500
vt 0.587500 0.962500
vt 0.837500 0.712500
vt 0.587500 0.018775
vt 0.606225 0.037500
vt 0.605433 0.019567
vt 0.606225 0.962500
vt 0.587500 1.000000
vt 0.587500 0.000000
vt 0.605433 0.000000
vt 0.605433 1.000000
vt 0.625000 0.037500
vt 0.875000 0.712500
vt 0.837500 0.750000
vt 0.625000 0.962500
vt 0.625000 0.019567
vt 0.625000 1.000000
vt 0.875000 0.730433
vt 0.162500 0.712500
vt 0.412500 0.962500
vt 0.412500 0.037500
vt 0.162500 0.731225
vt 0.143775 0.712500
vt 0.144567 0.730433
vt 0.412500 0.000000
vt 0.412500 1.000000
vt 0.375000 0.962500
vt 0.162500 0.750000
vt 0.144567 0.750000
vt 0.375000 0.980433
vt 0.375000 0.000000
vt 0.125000 0.712500
vt 0.375000 0.037500
vt 0.412500 0.018775
vt 0.375000 0.019567
vt 0.125000 0.730433
s 1
f 13/16/1 85/112/2 63/80/3
f 73/94/4 61/78/5 87/114/6
f 27/33/7 86/113/8 38/47/9
f 51/63/10 26/32/11 2/2/12
f 3/3/13 37/46/14 15/18/15
f 4/4/16 5/5/17 1/1/18
f 8/9/19 6/6/20 4/4/16
f 7/7/21 8/8/19 2/2/12
f 7/7/21 12/15/22 9/11/23
f 10/12/24 11/13/25 3/3/13
f 5/5/17 12/15/22 10/12/24
f 6/6/20 9/10/23 12/14/22
f 16/19/26 17/20/27 13/16/1
f 16/19/26 21/25/28 18/21/29
f 19/22/30 20/23/31 14/17/32
f 23/28/33 21/26/28 19/22/30
f 22/27/34 23/28/33 15/18/15
f 17/20/27 24/30/35 22/27/34
f 18/21/29 21/25/28 24/29/35
f 28/34/36 29/35/37 25/31/38
f 32/40/39 30/37/40 28/34/36
f 31/39/41 32/40/39 26/32/11
f 31/38/41 36/45/42 33/41/43
f 34/43/44 35/44/45 27/33/7
f 29/35/37 36/45/42 34/43/44
f 30/36/40 33/41/43 36/45/42
f 40/49/46 41/50/47 37/46/14
f 44/55/48 42/52/49 40/49/46
f 43/54/50 44/55/48 38/47/9
f 47/59/51 45/57/52 43/53/50
f 46/58/53 47/59/51 39/48/54
f 46/58/53 42/52/49 48/60/55
f 42/51/49 45/57/52 48/60/55
f 52/64/56 53/65/57 49/61/58
f 56/69/59 54/67/60 52/64/56
f 55/68/61 56/69/59 50/62/62
f 59/74/63 57/70/64 55/68/61
f 58/72/65 59/73/63 51/63/10
f 58/71/65 54/67/60 60/75/66
f 54/66/60 57/70/64 60/76/66
f 64/81/67 65/82/68 61/78/5
f 68/88/69 66/84/70 64/81/67
f 67/87/71 68/88/69 62/79/72
f 71/92/73 69/90/74 67/86/71
f 70/91/75 71/92/73 63/80/3
f 70/91/75 66/85/70 72/93/76
f 66/85/70 69/90/74 72/93/76
f 76/97/77 77/98/78 73/94/4
f 80/102/79 78/99/80 76/97/77
f 79/100/81 80/101/79 74/95/82
f 83/108/83 81/104/84 79/100/81
f 82/106/85 83/107/83 75/96/86
f 82/105/85 78/99/80 84/109/87
f 78/99/80 81/103/84 84/109/87
f 88/115/88 89/116/89 85/112/2
f 88/115/88 93/122/90 90/117/91
f 91/119/92 92/120/93 86/113/8
f 95/127/94 93/124/90 91/118/92
f 94/126/95 95/127/94 87/114/6
f 89/116/89 96/129/96 94/125/95
f 90/117/91 93/122/90 96/129/96
f 85/112/2 70/91/75 63/80/3
f 89/116/89 65/83/68 70/91/75
f 94/126/95 61/78/5 65/82/68
f 63/80/3 16/19/26 13/16/1
f 71/92/73 20/24/31 16/19/26
f 67/87/71 14/17/32 20/23/31
f 15/18/15 10/12/24 3/3/13
f 23/28/33 5/5/17 10/12/24
f 19/22/30 1/1/18 5/5/17
f 74/95/82 91/119/92 86/113/8
f 80/102/79 95/127/94 91/118/92
f 76/97/77 87/114/6 95/127/94
f 38/47/9 34/43/44 27/33/7
f 44/55/48 29/35/37 34/43/44
f 40/49/46 25/31/38 29/35/37
f 62/79/72 52/64/56 49/61/58
f 68/88/69 56/69/59 52/64/56
f 64/81/67 50/62/62 56/69/59
f 75/96/86 31/39/41 26/32/11
f 83/108/83 35/44/45 31/38/41
f 79/100/81 27/33/7 35/44/45
f 26/32/11 7/7/21 2/2/12
f 32/40/39 11/13/25 7/7/21
f 28/34/36 3/3/13 11/13/25
f 39/48/54 88/115/88 85/112/2
f 47/59/51 92/121/93 88/115/88
f 43/54/50 86/113/8 92/120/93
f 51/63/10 82/106/85 75/96/86
f 59/74/63 77/98/78 82/105/85
f 55/68/61 73/94/4 77/98/78
f 2/2/12 58/72/65 51/63/10
f 8/9/19 53/65/57 58/71/65
f 4/4/16 49/61/58 53/65/57
f 13/16/1 46/58/53 39/48/54
f 17/20/27 41/50/47 46/58/53
f 22/27/34 37/46/14 41/50/47
f 49/61/58 14/17/32 62/79/72
f 13/16/1 39/48/54 85/112/2
f 73/94/4 50/62/62 61/78/5
f 27/33/7 74/95/82 86/113/8
f 51/63/10 75/96/86 26/32/11
f 3/3/13 25/31/38 37/46/14
f 4/4/16 6/6/20 5/5/17
f 8/9/19 9/10/23 6/6/20
f 7/7/21 9/11/23 8/8/19
f 7/7/21 11/13/25 12/15/22
f 10/12/24 12/15/22 11/13/25
f 5/5/17 6/6/20 12/15/22
f 16/19/26 18/21/29 17/20/27
f 16/19/26 20/24/31 21/25/28
f 19/22/30 21/26/28 20/23/31
f 23/28/33 24/30/35 21/26/28
f 22/27/34 24/30/35 23/28/33
f 17/20/27 18/21/29 24/30/35
f 28/34/36 30/37/40 29/35/37
f 32/40/39 33/42/43 30/37/40
f 31/39/41 33/42/43 32/40/39
f 31/38/41 35/44/45 36/45/42
f 34/43/44 36/45/42 35/44/45
f 29/35/37 30/37/40 36/45/42
f 40/49/46 42/52/49 41/50/47
f 44/55/48 45/56/52 42/52/49
f 43/54/50 45/56/52 44/55/48
f 47/59/51 48/60/55 45/57/52
f 46/58/53 48/60/55 47/59/51
f 46/58/53 41/50/47 42/52/49
f 52/64/56 54/67/60 53/65/57
f 56/69/59 57/70/64 54/67/60
f 55/68/61 57/70/64 56/69/59
f 59/74/63 60/76/66 57/70/64
f 58/72/65 60/77/66 59/73/63
f 58/71/65 53/65/57 54/67/60
f 64/81/67 66/84/70 65/82/68
f 68/88/69 69/89/74 66/84/70
f 67/87/71 69/89/74 68/88/69
f 71/92/73 72/93/76 69/90/74
f 70/91/75 72/93/76 71/92/73
f 70/91/75 65/83/68 66/85/70
f 76/97/77 78/99/80 77/98/78
f 80/102/79 81/103/84 78/99/80
f 79/100/81 81/104/84 80/101/79
f 83/108/83 84/110/87 81/104/84
f 82/106/85 84/111/87 83/107/83
f 82/105/85 77/98/78 78/99/80
f 88/115/88 90/117/91 89/116/89
f 88/115/88 92/121/93 93/122/90
f 91/119/92 93/123/90 92/120/93
f 95/127/94 96/128/96 93/124/90
f 94/126/95 96/128/96 95/127/94
f 89/116/89 90/117/91 96/129/96
f 85/112/2 89/116/89 70/91/75
f 89/116/89 94/125/95 65/83/68
f 94/126/95 87/114/6 61/78/5
f 63/80/3 71/92/73 16/19/26
f 71/92/73 67/86/71 20/24/31
f 67/87/71 62/79/72 14/17/32
f 15/18/15 23/28/33 10/12/24
f 23/28/33 19/22/30 5/5/17
f 19/22/30 14/17/32 1/1/18
f 74/95/82 80/101/79 91/119/92
f 80/102/79 76/97/77 95/127/94
f 76/97/77 73/94/4 87/114/6
f 38/47/9 44/55/48 34/43/44
f 44/55/48 40/49/46 29/35/37
f 40/49/46 37/46/14 25/31/38
f 62/79/72 68/88/69 52/64/56
f 68/88/69 64/81/67 56/69/59
f 64/81/67 61/78/5 50/62/62
f 75/96/86 83/107/83 31/39/41
f 83/108/83 79/100/81 35/44/45
f 79/100/81 74/95/82 27/33/7
f 26/32/11 32/40/39 7/7/21
f 32/40/39 28/34/36 11/13/25
f 28/34/36 25/31/38 3/3/13
f 39/48/54 47/59/51 88/115/88
f 47/59/51 43/53/50 92/121/93
f 43/54/50 38/47/9 86/113/8
f 51/63/10 59/73/63 82/106/85
f 59/74/63 55/68/61 77/98/78
f 55/68/61 50/62/62 73/94/4
f 2/2/12 8/8/19 58/72/65
f 8/9/19 4/4/16 53/65/57
f 4/4/16 1/1/18 49/61/58
f 13/16/1 17/20/27 46/58/53
f 17/20/27 22/27/34 41/50/47
f 22/27/34 15/18/15 37/46/14
f 49/61/58 1/1/18 14/17/32
